<svg xmlns="http://www.w3.org/2000/svg" width="60" height="60" viewBox="0 0 60 60">
  <g id="Group_50687" data-name="Group 50687" transform="translate(1424 5269)">
    <circle id="Ellipse_431" data-name="Ellipse 431" cx="30" cy="30" r="30" transform="translate(-1424 -5269)" fill="#62ba59"/>
    <path id="Union_27" data-name="Union 27" d="M6.416,40.09H1.323A1.324,1.324,0,0,1,0,38.768a19.716,19.716,0,0,1,1.606-7.817A4.584,4.584,0,0,1,4.12,28.509l4.3-1.694.013-.005,2.211-.872.02-.007.312-.123a.348.348,0,0,0,.221-.325V23.37a9.279,9.279,0,0,1-3.353-4.89,11.623,11.623,0,0,1-.3-1.275A2.858,2.858,0,0,1,6,12.14,3.336,3.336,0,0,1,4.6,9.424V8.8A1.345,1.345,0,0,1,5.944,7.457h1.74a33.825,33.825,0,0,1,1.5-5.815A2.75,2.75,0,0,1,10.249.269a2.73,2.73,0,0,1,2.588.182,3.007,3.007,0,0,0,1.3.355,9.458,9.458,0,0,1,2.894,0,3.007,3.007,0,0,0,1.3-.355A2.73,2.73,0,0,1,20.914.269a2.75,2.75,0,0,1,1.063,1.373,33.693,33.693,0,0,1,1.5,5.815h1.735A1.345,1.345,0,0,1,26.558,8.8v.624A3.336,3.336,0,0,1,25.21,12.1a2.858,2.858,0,0,1-1.59,5.109,11.608,11.608,0,0,1-.309,1.3,9.267,9.267,0,0,1-3.345,4.857v2.111a.348.348,0,0,0,.22.325l.3.116.04.014,2.212.872.039.017,4.267,1.682a4.586,4.586,0,0,1,2.516,2.442,19.731,19.731,0,0,1,1.6,7.817,1.321,1.321,0,0,1-1.322,1.322H6.416Zm23.421-1.264a.058.058,0,0,0,.059-.059,18.461,18.461,0,0,0-1.5-7.318,3.31,3.31,0,0,0-1.818-1.765l-3.443-1.358v4.908a2.4,2.4,0,0,0,.659,1.654l.9.949a2.508,2.508,0,0,1,.689,1.731v1.258Zm-5.722,0V37.569a1.254,1.254,0,0,0-.344-.863l-.9-.949a3.655,3.655,0,0,1-1-2.522V27.829l-2.147-.847a1.621,1.621,0,0,1-.437-.256,4.809,4.809,0,0,1-7.413,0,1.622,1.622,0,0,1-.437.256l-.312.123-.02.008-1.812.715v5.407a3.655,3.655,0,0,1-1,2.522l-.9.949a1.252,1.252,0,0,0-.344.863v1.258ZM4.584,29.685A3.313,3.313,0,0,0,2.766,31.45a18.463,18.463,0,0,0-1.5,7.318.059.059,0,0,0,.059.059H5.784V37.569a2.508,2.508,0,0,1,.689-1.731l.9-.949a2.4,2.4,0,0,0,.659-1.654v-4.91Zm7.89-4.232.328.412a3.547,3.547,0,0,0,5.557,0l.322-.406.022-.026V24.171a6.974,6.974,0,0,1-6.245,0v1.263ZM9.052,18.12a8.064,8.064,0,0,0,3.493,4.649,5.7,5.7,0,0,0,6.073,0A8.053,8.053,0,0,0,22.1,18.151a13.488,13.488,0,0,0,.353-5.389H8.708A13.532,13.532,0,0,0,9.052,18.12Zm14.733-2.2a1.6,1.6,0,0,0-.057-3.133A17.059,17.059,0,0,1,23.785,15.918ZM6.207,14.358a1.6,1.6,0,0,0,1.169,1.537,17.079,17.079,0,0,1,.057-3.09A1.6,1.6,0,0,0,6.207,14.358ZM5.864,8.8v.624A2.077,2.077,0,0,0,7.939,11.5H23.221a2.077,2.077,0,0,0,2.074-2.075V8.8a.079.079,0,0,0-.079-.079H14.323a.632.632,0,0,1,0-1.264H22.2A32.492,32.492,0,0,0,20.788,2.07a1.481,1.481,0,0,0-.564-.743c-.278-.182-.854.058-1.411.29a3.76,3.76,0,0,1-1.976.437,8.2,8.2,0,0,0-2.509,0,3.762,3.762,0,0,1-1.976-.437c-.556-.231-1.133-.472-1.411-.29a1.481,1.481,0,0,0-.564.743A32.432,32.432,0,0,0,8.965,7.457h3.014a.632.632,0,1,1,0,1.264H5.944A.08.08,0,0,0,5.864,8.8Z" transform="translate(-1409.58 -5259.044)" fill="#fff" stroke="#fff" stroke-linecap="round" stroke-width="0.1"/>
  </g>
</svg>
